<svg width="121" height="121" viewBox="0 0 121 121" fill="none" xmlns="http://www.w3.org/2000/svg">
<g opacity="0.8">
<path d="M61.182 26C55.4879 26 50.1906 27.6766 45.7088 30.5257C44.5923 32.7214 43.6211 35.6045 43.6211 38.6943C43.6211 38.9453 43.6318 39.1975 43.6444 39.4509C43.9319 44.9874 47.4796 49.3514 53.9101 52.0611C57.2049 53.45 60.5571 54.5404 63.8021 55.592C74.294 58.9913 83.39 61.9401 83.39 73.0781C83.39 73.1922 83.3806 73.3159 83.3806 73.4331C87.5718 68.4128 90.1014 61.958 90.1014 54.9241C90.1014 38.9733 77.1304 26 61.182 26ZM61.182 26.7893C76.6941 26.7893 89.3121 39.4088 89.3121 54.9241C89.3121 60.7766 87.5007 66.4059 84.1045 71.1632C83.0656 60.9438 73.7949 57.9964 64.045 54.8353C60.8222 53.7925 57.491 52.7151 54.2183 51.3325C48.0847 48.7495 44.7022 44.6263 44.4338 39.4089L44.4151 38.6943C44.4151 35.5982 45.4298 32.8875 46.3206 31.0908C50.8032 28.2821 55.9361 26.7893 61.182 26.7893ZM74.9167 45.6613C74.7093 47.5973 73.7322 49.3639 72.1604 50.6285C70.4096 52.0396 68.0531 52.7039 65.6958 52.4474C63.3575 52.1971 61.2076 51.0466 59.7942 49.2927C58.5265 47.7185 57.9413 45.788 58.1487 43.8551C58.3594 41.8969 59.3516 40.1089 60.9479 38.8253C62.7018 37.4119 65.0433 36.7436 67.3689 36.9946C69.6954 37.248 71.8389 38.3954 73.2523 40.1493C74.5359 41.7457 75.1266 43.6999 74.9167 45.6613ZM61.1799 27.3437C56.1074 27.3437 51.1243 28.7824 46.7478 31.4913C45.922 33.193 44.9686 35.7728 44.9686 38.6804C44.9686 38.6804 44.9876 39.3757 44.9876 39.3788C45.2441 44.3682 48.5136 48.3243 54.4342 50.8209C57.6879 52.194 61.0065 53.2669 64.2174 54.3098L64.4027 54.3684C73.7844 57.409 82.9064 60.4299 84.4434 69.6825C87.2861 65.2625 88.7581 60.2082 88.7581 54.925C88.7581 39.7162 76.3856 27.3437 61.1799 27.3437ZM74.2856 45.5932C74.0972 47.3653 73.2 48.9831 71.7581 50.1431C70.138 51.4488 67.9509 52.0609 65.7607 51.8258C63.5926 51.5906 61.5972 50.5264 60.2891 48.9031C59.1227 47.4556 58.5882 45.689 58.7767 43.9232C58.9715 42.1289 59.8837 40.493 61.347 39.3107C62.9711 38.0026 65.1423 37.3874 67.3016 37.6194C69.4602 37.8514 71.4493 38.9148 72.7574 40.5421C73.9357 42.0054 74.4804 43.7989 74.2856 45.5932ZM67.224 38.3336C63.3393 37.9163 59.8686 40.4589 59.4877 44C59.1108 47.5015 61.9591 50.6934 65.8383 51.1115C67.8456 51.3277 69.8411 50.7679 71.3163 49.5801C72.6062 48.5412 73.4099 47.0993 73.577 45.5188C73.961 41.9745 71.1088 38.7509 67.224 38.3336Z" fill="black"/>
<path d="M32 87.25H36.9466V88.3784H33.4847V90.902H36.7558V92.0311H33.4847V95.9998H32V87.25Z" fill="black"/>
<path d="M39.4696 92.4999H41.9045L40.7001 88.6571H40.6748L39.4696 92.4999ZM39.7998 87.25H41.5878L44.5682 95.9998H43.0202L42.26 93.6291H39.1149L38.3539 95.9998H36.8066L39.7998 87.25Z" fill="black"/>
<path d="M45.7344 87.25H47.2175V95.9998H45.7344V87.25Z" fill="black"/>
<path d="M50.7937 91.1934H51.3772C52.3029 91.1934 53.2674 91.0033 53.2674 89.7103C53.2674 88.7973 52.7978 88.3024 51.9608 88.3024H50.7937V91.1934ZM49.3105 87.25H51.9608C53.6094 87.25 54.7758 87.8336 54.7758 89.5448C54.7758 90.9273 53.9388 91.3589 53.0385 91.5742V91.5996C54.2556 91.8664 54.3957 92.6139 54.5984 93.5396L55.1313 95.9998H53.6221L53.2159 94.1105C52.9118 92.7153 52.7345 92.2465 51.3772 92.2465H50.7937V95.9998H49.3105V87.25Z" fill="black"/>
<path d="M57.9208 88.3784H55.7266V87.25H61.5981V88.3784H59.4047V95.9998H57.9208V88.3784Z" fill="black"/>
<path d="M64.2744 91.1934H64.8572C65.7837 91.1934 66.7466 91.0033 66.7466 89.7103C66.7466 88.7973 66.2778 88.3024 65.4408 88.3024H64.2744V91.1934ZM62.7905 87.25H65.4408C67.0894 87.25 68.2566 87.8336 68.2566 89.5448C68.2566 90.9273 67.4196 91.3589 66.5185 91.5742V91.5996C67.7364 91.8664 67.8757 92.6139 68.0784 93.5396L68.6113 95.9998H67.1021L66.6959 94.1105C66.3918 92.7153 66.2144 92.2465 64.8572 92.2465H64.2744V95.9998H62.7905V87.25Z" fill="black"/>
<path d="M71.8705 92.4999H74.3054L73.1002 88.6571H73.0749L71.8705 92.4999ZM72.1999 87.25H73.9879L76.9683 95.9998H75.4211L74.6601 93.6291H71.5149L70.754 95.9998H69.2075L72.1999 87.25Z" fill="black"/>
<path d="M79.6694 94.9475H80.3544C81.851 94.9475 82.5613 94.2879 82.5613 91.5996C82.5613 89.4695 82.193 88.3024 80.3544 88.3024H79.6694V94.9475ZM78.1855 87.25H80.3544C83.1567 87.25 84.1964 88.4671 84.1964 91.5996C84.1964 95.6451 82.1677 95.9998 80.3544 95.9998H78.1855V87.25Z" fill="black"/>
<path d="M85.6553 87.25H90.7658V88.3784H87.1392V90.902H90.5758V92.0311H87.1392V94.8715H90.8672V95.9998H85.6553V87.25Z" fill="black"/>
<path d="M40.2119 35.0562C35.2937 40.2467 32.2534 47.2284 32.2534 54.9242C32.2534 68.1385 41.1706 79.2868 53.2985 82.7321C54.666 79.7912 55.2647 77.1493 55.2647 74.7176C55.2647 67.6005 50.1873 62.2582 44.5367 56.3067L43.8081 55.5361C39.8457 51.3567 38.7033 46.798 38.7033 42.9259C38.7033 39.5265 39.5839 36.6707 40.2119 35.0562ZM38.3484 38.5777C38.095 39.8549 37.9093 41.3913 37.9093 42.9259C37.9093 47.9271 39.7013 52.3568 43.2336 56.0872L43.9622 56.8485C49.6041 62.7873 54.4754 67.9157 54.4754 74.7176C54.4754 76.9387 53.8846 79.2443 52.8267 81.7093C41.1535 78.0597 33.0474 67.1795 33.0474 54.9242C33.0474 49.0535 34.9617 43.3224 38.3484 38.5777ZM33.5988 54.9252C33.5988 66.6325 41.3501 77.2487 52.4913 80.9791C53.4161 78.693 53.9205 76.624 53.9205 74.718C53.9205 68.1362 49.1172 63.0819 43.5585 57.2294L42.8316 56.4653C39.1971 52.6304 37.3568 48.0742 37.3568 42.9272C37.3568 42.3397 37.493 41.3435 37.5453 40.7402C35.0059 45.0058 33.5988 50.0783 33.5988 54.9252Z" fill="black"/>
</g>
</svg>
