<svg width="31" height="39" viewBox="0 0 31 39" fill="none" xmlns="http://www.w3.org/2000/svg">
<path id="Star 29" d="M14.0413 1.46504C14.4053 -0.0400805 16.546 -0.0400767 16.9101 1.46504L20.0688 14.5255C20.1871 15.0148 20.5467 15.41 21.0226 15.5739L29.1331 18.3671C30.4601 18.8241 30.4601 20.7008 29.1331 21.1577L21.0173 23.9527C20.5443 24.1157 20.186 24.5072 20.0655 24.9928L16.908 37.7219C16.5374 39.2158 14.4139 39.2158 14.0433 37.7219L10.8858 24.9928C10.7653 24.5072 10.407 24.1157 9.93397 23.9527L1.81819 21.1577C0.491235 20.7008 0.491237 18.8241 1.81819 18.3671L9.92868 15.5739C10.4046 15.41 10.7642 15.0148 10.8825 14.5255L14.0413 1.46504Z" fill="#FFB8FD"/>
</svg>
