<svg width="95" height="97" viewBox="0 0 95 97" fill="none" xmlns="http://www.w3.org/2000/svg">
<path d="M12.6798 57.0841V61.467H8.8036V75.6375H3.35063V61.467H0V57.0841H3.35063V49.9659H8.8036V57.0841H12.6798ZM19.5781 75.6375H14.0595V47H19.5781V59.9841C20.3337 57.6773 23.0273 56.6886 24.7683 56.6886C29.63 56.6886 32.1594 59.9511 32.1594 65.5534V75.6375H26.6736V65.7511C26.6736 63.3125 24.9326 62.0602 23.2573 62.0602C21.5163 62.0602 19.5781 63.0159 19.5781 65.85C19.5781 65.817 19.5781 75.6375 19.5781 75.6375ZM39.9447 75.6375H34.426V57.0841H39.9447V61.5659C40.8973 58.1057 43.2624 56.6886 45.1677 56.6886C46.4817 56.6886 47.4672 56.9193 48.3212 57.3807L47.3358 62.3568C46.3503 61.8954 45.3976 61.7966 44.5107 61.7966C41.3572 61.7966 39.9118 64.3011 39.9118 69.1784L39.9447 75.6375ZM49.4053 75.6375V57.0841H54.8582V75.6375H49.4053ZM52.1317 47C54.0042 47 55.4824 48.3841 55.4824 50.2295C55.4824 52.042 53.9713 53.492 52.1317 53.492C50.2593 53.492 48.6826 52.075 48.6826 50.2295C48.6826 48.3841 50.2593 47 52.1317 47ZM55.9423 57.0841H61.7894L66.0927 68.6182L70.3631 57.0841H76.2759L68.425 75.6375H63.7275L55.9423 57.0841ZM89.5142 73.5284C88.3316 75.308 85.5394 76 84.1269 76C79.4295 76 74.6992 72.3091 74.6992 66.3443C74.6992 60.3795 79.3966 56.6886 84.1269 56.6886C85.3095 56.6886 88.1017 57.0841 89.5142 59.1602V57.0841H95V75.6375H89.547C89.5142 75.6375 89.5142 73.5284 89.5142 73.5284ZM85.0467 70.7602C87.3133 70.7602 89.5142 69.1454 89.5142 66.3443C89.5142 63.5432 87.2804 61.9284 85.0467 61.9284C82.7472 61.9284 80.4149 63.675 80.4149 66.3443C80.4149 69.0136 82.7472 70.7602 85.0467 70.7602Z" fill="black"/>
</svg>
