<svg width="121" height="121" viewBox="0 0 121 121" fill="none" xmlns="http://www.w3.org/2000/svg">
<g opacity="0.8">
<path d="M20 74.9421C20 63.2095 20 51.6257 20 40C43.8174 40 67.6068 40 91.1202 40C90.1398 41.0631 89.0423 42.2789 87.9041 43.4564C87.7541 43.6116 87.398 43.6116 87.1373 43.6116C73.5735 43.6179 60.0097 43.6179 46.446 43.6179C39.1452 43.6179 31.8457 43.6179 24.545 43.6179C24.3136 43.6179 24.0821 43.6179 23.7464 43.6179C23.7464 43.8914 23.7464 44.1342 23.7464 44.3771C23.7464 53.1543 23.7438 61.9315 23.7527 70.7086C23.7527 71.1169 23.6574 71.4144 23.3496 71.7031C22.2471 72.7395 21.17 73.8065 20 74.9421Z" fill="black"/>
<path d="M99.3201 78.3973C99.3201 78.04 99.3201 77.7882 99.3201 77.5364C99.3201 68.8012 99.3239 60.066 99.3099 51.3308C99.3086 50.8946 99.4358 50.5957 99.7372 50.2804C100.775 49.1956 101.773 48.074 102.785 46.9651C102.872 47.035 102.958 47.105 103.045 47.1749C103.045 58.7651 103.045 70.3539 103.045 82C79.1804 82 55.3096 82 31.7046 82C32.6889 80.9394 33.7914 79.7262 34.9334 78.5525C35.0835 78.3973 35.4421 78.4037 35.7028 78.4037C54.2605 78.3973 72.8194 78.3973 91.3771 78.3973C93.7679 78.3973 96.1599 78.3973 98.5507 78.3973C98.7809 78.3973 99.0085 78.3973 99.3201 78.3973Z" fill="black"/>
<path d="M64.6627 63.6684C65.9153 65.4526 67.1374 67.1922 68.4371 69.0438C66.7394 69.0438 65.165 69.0565 63.5932 69.026C63.4216 69.0222 63.2143 68.7971 63.0935 68.6242C62.2465 67.4123 61.3945 66.2016 60.5946 64.9579C60.297 64.4937 59.9791 64.2661 59.4208 64.3399C59.0495 64.3882 58.6667 64.3488 58.2102 64.3488C58.2102 65.9282 58.2102 67.458 58.2102 69.0146C56.7223 69.0146 55.3158 69.0146 53.8623 69.0146C53.8623 63.891 53.8623 58.7864 53.8623 53.5776C54.048 53.5776 54.2464 53.5776 54.446 53.5776C56.7935 53.5776 59.1423 53.528 61.4886 53.6005C62.5314 53.6323 63.6072 53.7836 64.5953 54.1041C66.5931 54.7514 67.7224 56.1934 67.8826 58.3184C68.0416 60.4332 67.332 62.1348 65.4461 63.2449C65.2083 63.3836 64.9628 63.5056 64.6627 63.6684ZM58.228 60.9076C58.3132 60.9508 58.3501 60.9864 58.387 60.9864C59.1271 60.9928 59.8672 61.0157 60.606 60.9902C61.1503 60.9712 61.7111 60.9534 62.2325 60.8147C63.0617 60.5935 63.5093 59.9398 63.5106 59.1336C63.5118 58.2841 63.0579 57.5427 62.1982 57.427C60.8973 57.2528 59.5722 57.2642 58.228 57.1955C58.228 58.5295 58.228 59.7071 58.228 60.9076Z" fill="black"/>
<path d="M81.9181 61.1048C83.7277 63.7397 85.5068 66.334 87.3673 69.0439C86.8802 69.0439 86.4949 69.0439 86.1096 69.0439C85.0312 69.0439 83.9503 69.0185 82.8732 69.0566C82.4281 69.0719 82.1915 68.9066 81.9652 68.5492C81.0992 67.1758 80.2026 65.8202 79.259 64.3667C79.0645 64.6579 78.9055 64.8931 78.7504 65.1297C77.9861 66.2971 77.2345 67.4721 76.4473 68.6243C76.3164 68.815 76.0417 69.0198 75.8293 69.0249C74.3503 69.0592 72.8688 69.0427 71.269 69.0427C71.4242 68.7959 71.5336 68.609 71.6556 68.4322C73.2313 66.1547 74.8005 63.8733 76.3927 61.6084C76.6254 61.2777 76.6292 61.0641 76.3965 60.7309C74.8832 58.5652 73.3953 56.3818 71.8998 54.2034C71.7828 54.0317 71.6722 53.8549 71.489 53.5764C72.1287 53.5764 72.6857 53.5764 73.2414 53.5764C73.8544 53.5764 74.48 53.6527 75.079 53.5599C76.2019 53.3857 76.8505 53.8409 77.3642 54.8176C77.92 55.8744 78.6385 56.8447 79.3226 57.9116C80.2001 56.5776 81.047 55.3161 81.8609 54.033C82.0796 53.6871 82.3149 53.5574 82.7282 53.5663C84.1436 53.5942 85.5602 53.5764 87.127 53.5764C85.3619 56.1312 83.6527 58.5996 81.9181 61.1048Z" fill="black"/>
<path d="M40.4425 69.0008C40.4425 65.1119 40.4425 61.2676 40.4425 57.3369C38.8542 57.3369 37.3028 57.3369 35.731 57.3369C35.731 56.0525 35.731 54.8545 35.731 53.6172C40.3548 53.6172 44.9532 53.6172 49.586 53.6172C49.586 54.8342 49.586 56.0308 49.586 57.3051C48.0307 57.3051 46.478 57.3051 44.8655 57.3051C44.8655 61.2397 44.8655 65.0992 44.8655 69.0008C43.3789 69.0008 41.9533 69.0008 40.4425 69.0008Z" fill="black"/>
</g>
</svg>
