<svg width="153" height="97" viewBox="0 0 153 97" fill="none" xmlns="http://www.w3.org/2000/svg">
<path d="M6.61916 75.3157C5.55225 75.3157 4.60147 75.1306 3.76682 74.7605C2.93217 74.3831 2.27171 73.8279 1.78543 73.0948C1.30641 72.3545 1.0669 71.4328 1.0669 70.3296C1.0669 69.4006 1.23746 68.6204 1.57858 67.9889C1.9197 67.3575 2.3842 66.8494 2.97209 66.4648C3.55997 66.0801 4.2277 65.7898 4.97525 65.5938C5.73007 65.3979 6.52118 65.26 7.34857 65.1801C8.32112 65.0785 9.10497 64.9842 9.70011 64.8971C10.2953 64.8027 10.7271 64.6648 10.9956 64.4834C11.2642 64.3019 11.3984 64.0334 11.3984 63.6778V63.6124C11.3984 62.9229 11.1807 62.3895 10.7452 62.0121C10.317 61.6347 9.70737 61.446 8.91626 61.446C8.08161 61.446 7.41752 61.631 6.92399 62.0012C6.43045 62.3641 6.10385 62.8213 5.94418 63.3729L1.65479 63.0246C1.87252 62.0085 2.30074 61.1303 2.93943 60.39C3.57812 59.6424 4.40188 59.069 5.41072 58.6698C6.42682 58.2634 7.60259 58.0602 8.93804 58.0602C9.86704 58.0602 10.7561 58.1691 11.6053 58.3868C12.4617 58.6045 13.2202 58.942 13.8806 59.3993C14.5484 59.8565 15.0745 60.4444 15.4592 61.1629C15.8439 61.8742 16.0362 62.727 16.0362 63.7213V75H11.638V72.6811H11.5073C11.2388 73.2037 10.8795 73.6646 10.4295 74.0637C9.97954 74.4557 9.43883 74.7641 8.8074 74.9891C8.17596 75.2068 7.44655 75.3157 6.61916 75.3157ZM7.94734 72.115C8.62958 72.115 9.23198 71.9807 9.75455 71.7122C10.2771 71.4364 10.6872 71.0662 10.9848 70.6017C11.2823 70.1372 11.4311 69.611 11.4311 69.0232V67.2486C11.286 67.343 11.0864 67.4301 10.8323 67.5099C10.5856 67.5825 10.3061 67.6514 9.99406 67.7168C9.68197 67.7748 9.36988 67.8292 9.05779 67.8801C8.7457 67.9236 8.46265 67.9635 8.20862 67.9998C7.66429 68.0796 7.1889 68.2067 6.78246 68.3808C6.37602 68.555 6.0603 68.7909 5.83531 69.0885C5.61032 69.3788 5.49782 69.7417 5.49782 70.1772C5.49782 70.8086 5.72644 71.2912 6.18369 71.6251C6.64819 71.9517 7.23607 72.115 7.94734 72.115ZM19.0211 81.2708V58.2779H23.5936V61.0867H23.8004C24.0037 60.6367 24.2976 60.1795 24.6823 59.715C25.0742 59.2432 25.5822 58.8513 26.2064 58.5392C26.8378 58.2199 27.6217 58.0602 28.558 58.0602C29.7773 58.0602 30.9022 58.3795 31.9329 59.0182C32.9635 59.6497 33.7872 60.6041 34.4042 61.8814C35.0211 63.1516 35.3295 64.7447 35.3295 66.6607C35.3295 68.526 35.0283 70.101 34.4259 71.3856C33.8308 72.663 33.0179 73.6319 31.9873 74.2924C30.9639 74.9456 29.8172 75.2722 28.5471 75.2722C27.6471 75.2722 26.8814 75.1234 26.25 74.8258C25.6258 74.5282 25.1141 74.1545 24.7149 73.7045C24.3157 73.2472 24.0109 72.7864 23.8004 72.3219H23.6589V81.2708H19.0211ZM23.5609 66.639C23.5609 67.6333 23.6988 68.5006 23.9746 69.2409C24.2504 69.9812 24.6496 70.5582 25.1722 70.9719C25.6947 71.3783 26.3298 71.5816 27.0774 71.5816C27.8322 71.5816 28.4709 71.3747 28.9934 70.961C29.516 70.5401 29.9115 69.9594 30.1801 69.2191C30.4559 68.4716 30.5938 67.6115 30.5938 66.639C30.5938 65.6737 30.4595 64.8245 30.191 64.0915C29.9224 63.3584 29.5269 62.785 29.0043 62.3713C28.4817 61.9576 27.8394 61.7508 27.0774 61.7508C26.3225 61.7508 25.6838 61.9504 25.1613 62.3496C24.646 62.7488 24.2504 63.3149 23.9746 64.0479C23.6988 64.781 23.5609 65.6446 23.5609 66.639ZM37.8082 81.2708V58.2779H42.3807V61.0867H42.5875C42.7907 60.6367 43.0847 60.1795 43.4693 59.715C43.8613 59.2432 44.3693 58.8513 44.9935 58.5392C45.6249 58.2199 46.4088 58.0602 47.345 58.0602C48.5644 58.0602 49.6893 58.3795 50.7199 59.0182C51.7505 59.6497 52.5743 60.6041 53.1912 61.8814C53.8081 63.1516 54.1166 64.7447 54.1166 66.6607C54.1166 68.526 53.8154 70.101 53.213 71.3856C52.6179 72.663 51.805 73.6319 50.7744 74.2924C49.751 74.9456 48.6043 75.2722 47.3341 75.2722C46.4342 75.2722 45.6685 75.1234 45.037 74.8258C44.4129 74.5282 43.9012 74.1545 43.502 73.7045C43.1028 73.2472 42.798 72.7864 42.5875 72.3219H42.446V81.2708H37.8082ZM42.348 66.639C42.348 67.6333 42.4859 68.5006 42.7617 69.2409C43.0375 69.9812 43.4367 70.5582 43.9592 70.9719C44.4818 71.3783 45.1169 71.5816 45.8644 71.5816C46.6193 71.5816 47.2579 71.3747 47.7805 70.961C48.3031 70.5401 48.6986 69.9594 48.9672 69.2191C49.243 68.4716 49.3809 67.6115 49.3809 66.639C49.3809 65.6737 49.2466 64.8245 48.9781 64.0915C48.7095 63.3584 48.314 62.785 47.7914 62.3713C47.2688 61.9576 46.6265 61.7508 45.8644 61.7508C45.1096 61.7508 44.4709 61.9504 43.9484 62.3496C43.4331 62.7488 43.0375 63.3149 42.7617 64.0479C42.4859 64.781 42.348 65.6446 42.348 66.639ZM70.5086 63.0463L66.2628 63.3076C66.1902 62.9447 66.0341 62.6181 65.7946 62.3278C65.5551 62.0302 65.2394 61.7943 64.8475 61.6202C64.4628 61.4387 64.0019 61.348 63.4649 61.348C62.7463 61.348 62.1403 61.5004 61.6468 61.8052C61.1532 62.1028 60.9065 62.502 60.9065 63.0028C60.9065 63.402 61.0661 63.7395 61.3855 64.0152C61.7048 64.291 62.2528 64.5124 63.0294 64.6793L66.0559 65.289C67.6817 65.6229 68.8937 66.1599 69.6921 66.9002C70.4905 67.6405 70.8896 68.6131 70.8896 69.8179C70.8896 70.9138 70.5667 71.8755 69.9207 72.7029C69.282 73.5303 68.4038 74.1762 67.2861 74.6407C66.1757 75.098 64.8947 75.3266 63.4431 75.3266C61.2294 75.3266 59.4658 74.8657 58.1521 73.944C56.8457 73.015 56.08 71.7521 55.855 70.1554L60.4166 69.9159C60.5545 70.5909 60.8883 71.1062 61.4181 71.4618C61.948 71.8102 62.6266 71.9844 63.454 71.9844C64.2668 71.9844 64.9201 71.8283 65.4136 71.5162C65.9144 71.1969 66.1684 70.7868 66.1757 70.286C66.1684 69.8651 65.9906 69.5203 65.6422 69.2518C65.2938 68.976 64.7568 68.7655 64.031 68.6204L61.1351 68.0434C59.5021 67.7168 58.2864 67.1506 57.488 66.345C56.6969 65.5394 56.3014 64.5124 56.3014 63.2641C56.3014 62.1899 56.5917 61.2645 57.1723 60.4879C57.7602 59.7113 58.584 59.1126 59.6436 58.6916C60.7105 58.2707 61.9589 58.0602 63.3886 58.0602C65.5007 58.0602 67.1627 58.5065 68.3748 59.3993C69.5941 60.292 70.3054 61.5077 70.5086 63.0463ZM73.1969 75V58.2779H77.6169V61.2282H77.8129C78.1612 60.2484 78.7419 59.4755 79.5547 58.9094C80.3676 58.3432 81.3402 58.0602 82.4724 58.0602C83.6191 58.0602 84.5953 58.3469 85.4009 58.9202C86.2066 59.4864 86.7436 60.2557 87.0122 61.2282H87.1864C87.5275 60.2702 88.1444 59.5045 89.0371 58.9311C89.9371 58.3505 91.0004 58.0602 92.2269 58.0602C93.7874 58.0602 95.0539 58.5573 96.0264 59.5517C97.0062 60.5387 97.4961 61.9395 97.4961 63.754V75H92.8693V64.6685C92.8693 63.7395 92.6225 63.0427 92.129 62.5782C91.6354 62.1137 91.0185 61.8814 90.2782 61.8814C89.4363 61.8814 88.7795 62.15 88.3077 62.6871C87.8359 63.2169 87.6001 63.9173 87.6001 64.7882V75H83.1038V64.5705C83.1038 63.7503 82.8679 63.0971 82.3962 62.6109C81.9317 62.1246 81.3184 61.8814 80.5563 61.8814C80.041 61.8814 79.5765 62.0121 79.1628 62.2734C78.7564 62.5274 78.4334 62.8867 78.1939 63.3512C77.9544 63.8084 77.8346 64.3455 77.8346 64.9624V75H73.1969ZM100.546 75V58.2779H105.184V75H100.546ZM102.876 56.1223C102.187 56.1223 101.595 55.8937 101.102 55.4365C100.615 54.972 100.372 54.4167 100.372 53.7708C100.372 53.1321 100.615 52.5841 101.102 52.1269C101.595 51.6624 102.187 51.4301 102.876 51.4301C103.566 51.4301 104.154 51.6624 104.64 52.1269C105.133 52.5841 105.38 53.1321 105.38 53.7708C105.38 54.4167 105.133 54.972 104.64 55.4365C104.154 55.8937 103.566 56.1223 102.876 56.1223ZM117.181 58.2779V61.7617H107.11V58.2779H117.181ZM109.397 54.2716H114.034V69.8614C114.034 70.2897 114.1 70.6235 114.23 70.863C114.361 71.0953 114.542 71.2586 114.775 71.3529C115.014 71.4473 115.29 71.4945 115.602 71.4945C115.82 71.4945 116.038 71.4763 116.255 71.44C116.473 71.3965 116.64 71.3638 116.756 71.342L117.485 74.7932C117.253 74.8657 116.927 74.9492 116.506 75.0435C116.085 75.1452 115.573 75.2068 114.971 75.2286C113.853 75.2722 112.873 75.1234 112.031 74.7823C111.197 74.4411 110.547 73.9113 110.082 73.1928C109.618 72.4743 109.389 71.567 109.397 70.4711V54.2716ZM124.586 65.3325V75H119.948V52.7039H124.455V61.2282H124.651C125.028 60.2412 125.638 59.4682 126.48 58.9094C127.322 58.3432 128.378 58.0602 129.648 58.0602C130.809 58.0602 131.822 58.3142 132.685 58.8223C133.556 59.3231 134.231 60.0452 134.71 60.9887C135.197 61.925 135.436 63.0463 135.429 64.3527V75H130.791V65.1801C130.798 64.1495 130.537 63.3475 130.007 62.7742C129.485 62.2008 128.752 61.9141 127.808 61.9141C127.177 61.9141 126.618 62.0484 126.131 62.3169C125.652 62.5855 125.275 62.9774 124.999 63.4927C124.731 64.0007 124.593 64.614 124.586 65.3325ZM151.236 75V78.5164H136.593V75H151.236Z" fill="black"/>
</svg>
