<svg width="61" height="69" viewBox="0 0 61 69" fill="none" xmlns="http://www.w3.org/2000/svg">
<path d="M35.1293 0H26.181L6.98792 46.1371H54.3118L35.1293 0ZM30.7236 14.2999L37.7959 35.5704H23.6514L30.7236 14.2999Z" fill="#323232"/>
<path d="M6.22923 52.5277L0.000183105 68.7363H2.77216L4.43745 64.2439H10.6349L12.3002 68.7363H15.0932L8.86418 52.5277H6.22923ZM5.30172 61.8711L7.51509 55.8812L9.72845 61.8711H5.30172Z" fill="#323232"/>
<path d="M35.6342 56.7563C32.4406 56.7563 30.1429 59.3928 30.1429 62.9044C30.1429 66.5216 32.409 68.9998 35.6869 68.9998C38.5116 68.9998 40.2296 67.418 40.6195 65.0979H38.1954C37.9003 66.2369 36.9517 66.7852 35.6869 66.7852C34.0005 66.7852 32.8095 65.5408 32.7357 63.4844H40.7249V62.5353C40.7249 59.108 38.9332 56.7563 35.6342 56.7563ZM32.8095 61.5546C33.1257 59.8673 34.2113 58.9709 35.6553 58.9709C37.2679 58.9709 38.0794 60.1309 38.1111 61.5546H32.8095Z" fill="#323232"/>
<path d="M48.578 61.9237L46.1012 61.3437C45.258 61.1328 44.8891 60.7848 44.8891 60.2575C44.8891 59.3295 45.8377 58.9076 46.7652 58.9076C47.9772 58.9076 48.6623 59.4349 48.9047 60.2048H51.487C51.0865 58.064 49.5371 56.7458 46.7862 56.7458C44.2251 56.7458 42.349 58.3065 42.349 60.4157C42.349 62.3455 43.5927 63.2419 45.2474 63.6321L47.6716 64.2121C48.6518 64.4546 49.0418 64.7921 49.0418 65.4248C49.0418 66.3529 48.2513 66.8274 47.0392 66.8274C45.8798 66.8274 45.005 66.3212 44.7204 65.351H42.0328C42.3806 67.6183 44.2778 68.9893 47.0181 68.9893C49.6531 68.9893 51.5819 67.5656 51.5819 65.2456C51.5924 63.5372 50.5911 62.3982 48.578 61.9237Z" fill="#323232"/>
<path d="M27.2888 69H28.7538V66.6484H27.2045C26.3824 66.6167 25.887 66.1949 25.887 65.2774V59.2032H28.522V57.0097H25.887V53.8671H23.252V57.0097H19.2891V53.8671H16.6541V57.0097H14.8096V59.2032H16.6541V65.5622C16.6541 67.8822 18.1297 68.9895 20.2166 68.9895H20.6909H22.1559V66.6484H20.6065C19.7844 66.6167 19.2891 66.1949 19.2891 65.2774V59.2032H23.2626V65.5622C23.2626 67.8822 24.7382 68.9895 26.825 68.9895H27.2888V69Z" fill="#323232"/>
<path d="M58.5605 69H60.0255V66.6484H58.4762C57.6541 66.6167 57.1587 66.1949 57.1587 65.2774V59.2032H59.7937V57.0097H57.1587V53.8671H54.5237V57.0097H52.6793V59.2032H54.5237V65.5622C54.5237 67.8822 55.9993 68.9895 58.0862 68.9895H58.5605V69Z" fill="#323232"/>
</svg>
