<svg width="121" height="121" viewBox="0 0 121 121" fill="none" xmlns="http://www.w3.org/2000/svg">
<g opacity="0.8">
<path d="M108.604 68.6069C107.969 67.4559 106.599 66.5825 105.112 66.5825C103.804 66.5825 102.654 67.1183 102.654 68.5074C102.654 69.6772 104.102 70.4705 105.61 71.4431C107.255 72.4744 108.962 73.7429 108.962 75.9458C108.962 78.8221 106.165 80.5867 102.932 80.5867C101.603 80.5867 100.215 80.3292 98.6477 79.734L98.9047 75.9056C99.6593 77.4336 101.068 78.6429 103.149 78.6429C104.756 78.6429 105.946 77.87 105.946 76.5204C105.946 75.3698 104.973 74.6561 103.784 73.9424C101.284 72.4354 99.6986 71.2242 99.6986 69.0431C99.6986 65.7694 102.435 64.6787 105.272 64.6787C106.917 64.6787 107.95 64.9764 109 64.9764L108.604 68.6069ZM94.74 72.0375C94.3817 72.6332 93.9275 73.4451 93.6481 74.0414C93.411 75.1716 93.2915 76.68 93.2915 78.3452C93.2915 79.0397 93.4108 79.9715 93.7279 80.2892H89.5829C90.3156 79.5952 90.6141 75.3317 90.5752 73.9821C90.0197 72.0585 89.2645 70.2135 88.1148 67.9718C87.3827 66.5643 86.5287 65.2337 85.9929 64.9767C86.9245 64.8984 88.1148 64.8384 88.6908 64.8384C89.7214 64.8384 90.0002 64.9767 90.6354 66.3658C91.6253 68.6077 92.3594 70.2921 92.7962 71.5427C93.8478 69.8961 94.5812 68.7659 95.5335 67.2185C95.7713 66.8416 95.9698 66.3658 95.9698 65.9092C95.9698 65.5514 95.9098 65.1554 95.7517 64.9767H99.8578C99.0641 65.1554 95.4931 70.769 94.74 72.0375ZM80.3198 68.568L77.8611 73.9024H81.8671L80.3198 68.568ZM85.14 80.4276C83.83 80.4276 83.7318 80.3887 82.6803 76.7788L82.3038 75.4497C81.6699 75.7468 80.5379 75.8859 78.7335 75.8859H76.9088L76.5913 76.5601C76.1353 77.5729 75.5204 78.7611 75.5204 79.5958C75.5204 79.7942 75.5402 80.0117 75.62 80.2899H64.7898C65.4052 79.5959 65.6036 77.3548 65.9008 73.2875L65.9602 72.3163C66.1189 69.9954 66.2395 68.2102 66.2184 66.9615C66.1987 65.9305 66.0992 65.2754 65.8216 64.978H70.0074C69.4117 65.4348 69.1929 67.8933 68.9162 71.9603L68.8365 72.9315C68.7371 74.4393 68.5393 75.9859 68.5393 77.4936C68.5393 78.1869 68.8168 78.3455 69.5318 78.3455C72.0695 78.3455 72.7053 78.2863 73.8545 77.5127C74.5682 76.2033 75.3826 74.5565 76.1748 72.8511L77.2475 70.5706C78.2584 68.4283 79.2495 66.2458 79.2495 65.8301C79.2495 65.5316 79.1704 65.2547 79.0525 64.9767H82.3842C82.3842 64.9767 83.7325 69.9757 84.0303 71.0457L84.684 73.466C85.8142 77.5326 86.529 79.5153 87.4813 80.2889C86.6868 80.3887 85.5565 80.4276 85.14 80.4276ZM58.1463 80.5869C54.1991 80.5869 51.9179 77.3342 51.9179 73.6848C51.9179 68.6075 54.6744 64.6789 59.9308 64.6789C61.5768 64.6789 62.3512 64.9767 63.679 64.9767L63.2828 68.8842C62.5291 67.5156 61.2988 66.5831 59.6533 66.5831C56.3809 66.5831 55.0518 70.1145 55.0518 73.1491C55.0518 76.4413 56.8968 78.2455 59.3555 78.2455C60.6847 78.2455 61.8543 77.8884 63.8186 76.5204C63.0252 79.0602 61.1802 80.5869 58.1463 80.5869ZM44.4609 66.8416C44.084 66.8416 43.6266 66.8416 43.2707 66.8811C43.1515 67.5354 43.0521 68.6661 42.9129 70.4903L42.8333 71.5624C43.0329 71.6024 43.29 71.6229 43.5285 71.6229C45.4316 71.6229 46.7415 70.4713 46.7415 68.7268C46.7415 67.5354 45.9087 66.8416 44.4609 66.8416ZM49.9936 80.944C48.8634 80.944 48.5854 80.7648 48.2091 80.2489L43.9245 74.2984C43.5871 73.8424 43.3294 73.4654 42.7943 73.4654H42.6948L42.6164 74.6161C42.5163 76.1831 42.457 77.4339 42.457 78.3656C42.4767 79.3968 42.596 80.0308 42.874 80.2892H38.7284C39.3228 79.7534 39.5403 77.9683 39.8783 73.287L39.9383 72.3157C40.097 70.0152 40.2163 68.2295 40.1958 66.9808C40.1755 65.8896 40.0575 65.2148 39.759 64.9769H45.4116C47.2562 64.9769 49.795 65.2951 49.795 68.2895C49.795 70.7481 48.1482 72.0976 46.1061 72.7315C46.3045 72.9109 46.661 73.3669 46.8797 73.6449L49.9933 77.7707C51.9374 80.3294 52.0955 80.4481 52.7906 80.8052C51.9179 80.9038 50.7481 80.944 49.9936 80.944ZM30.6765 68.568L28.1956 73.9024H32.2221L30.6765 68.568ZM35.495 80.4276C34.1869 80.4276 34.0875 80.3887 33.0364 76.7788L32.6594 75.4497C32.0236 75.7468 30.8935 75.8859 29.0885 75.8859H27.2638L26.9469 76.5601C26.6294 77.2751 25.8556 78.7433 25.8755 79.5958C25.8755 79.7942 25.8952 79.9927 25.9749 80.2899H22.3059C23.3568 79.2388 24.6861 76.7992 26.5306 72.8521L27.6019 70.5714C28.5732 68.5089 29.6053 66.1682 29.6053 65.8309C29.6053 65.5324 29.5268 65.2555 29.4069 64.9775H32.7398C32.7398 64.9775 33.6109 68.2901 34.3853 71.0465L35.0396 73.4668C36.1705 77.5334 36.8842 79.5161 37.8363 80.2897C36.9836 80.3887 35.912 80.4276 35.495 80.4276ZM16.6124 66.8219C16.3147 66.8219 15.9186 66.8219 15.5415 66.8621C15.3828 67.9329 15.2833 68.9641 15.2047 70.0943C15.2047 70.0943 15.1447 71.0655 15.1447 71.0261H15.5415C17.4855 71.0261 19.2712 70.352 19.2712 68.568C19.2714 67.5354 18.4179 66.8219 16.6124 66.8219ZM16.1175 72.8909H15.0268L14.868 75.1517C14.7922 76.0888 14.7458 77.0281 14.729 77.9681C14.729 78.1079 15.1653 78.4051 16.1959 78.4051C18.3382 78.4051 19.747 77.3342 19.747 75.5682C19.747 73.6046 18.1399 72.8909 16.1175 72.8909ZM16.3554 80.2892H11C11.6748 79.6935 11.8533 77.3732 12.1505 73.287L12.2098 72.3355C12.3693 70.0146 12.4879 68.2295 12.4681 66.9808C12.4484 65.9093 12.3291 65.2148 12.0311 64.9769H18.0211C19.4491 64.9769 22.3057 65.0566 22.3057 68.031C22.3057 70.0146 20.4607 71.2442 18.775 71.6817C21.155 71.9197 22.9403 73.0696 22.9403 75.5287C22.9398 78.1864 20.441 80.2892 16.3554 80.2892Z" fill="black"/>
<path d="M59.314 41.0016C58.7835 41.0016 58.6738 41.094 58.5016 41.286C58.431 41.2817 58.3601 41.2798 58.2893 41.2802C57.881 41.2802 57.3569 41.3403 56.9098 41.6392C56.4781 41.9243 56.2726 42.4288 56.5029 42.7981C56.5029 42.7981 56.6573 42.5717 57.165 42.5717C57.2363 42.5717 57.3154 42.5794 57.3996 42.5864C58.1013 42.6694 58.6205 43.0385 58.5572 44.0137C58.501 44.9882 58.1356 46.075 56.6406 46.0877C56.6406 46.0877 56.448 46.0877 56.2427 46.0686C55.5469 45.9927 55.3282 45.5559 55.3282 45.5559C55.3282 45.5559 55.9296 45.3925 55.9346 44.6292C55.9296 44.1101 55.4774 43.635 54.8249 43.443C54.6113 43.3805 54.3765 43.3499 54.1323 43.3499C53.363 43.3499 52.4996 43.6721 51.9172 44.4322C50.5971 46.1753 50.49 48.7162 50.812 51.0791C51.136 53.4473 52.638 55.6404 52.682 55.7005C52.7139 55.7426 52.7427 55.7655 52.7752 55.7655C52.7945 55.7643 52.8127 55.7564 52.8268 55.7431C53.4755 55.1136 54.094 54.2532 54.3586 53.678C54.6419 53.9038 54.4939 54.384 54.3382 54.8968C54.1903 55.4209 53.8306 56.1168 53.7004 56.3413C53.5749 56.5609 53.4064 56.816 53.6329 56.9492C53.6559 56.9633 53.6852 56.971 53.7203 56.971C54.0111 56.971 54.6955 56.464 55.4588 55.446C56.3135 54.3008 56.7471 53.2839 56.7471 53.2839C56.8097 53.298 56.9141 53.4039 56.897 53.6923C56.8856 53.985 56.5846 55.0744 55.9985 56.0883C55.406 57.1018 54.8588 57.7357 54.7483 57.8799C54.6801 57.9633 54.7383 58.0156 54.7821 58.0496C54.8255 58.0789 55.8734 59.0573 57.3958 59.8837C59.1993 60.845 59.9992 61.0178 59.9992 61.0178C59.9992 61.0178 60.797 60.8493 62.6007 59.8889C64.1224 59.061 65.1746 58.0781 65.2135 58.045C65.2574 58.0149 65.3136 57.9679 65.2473 57.8759C65.1434 57.7381 64.5943 57.101 64.0029 56.0875C63.4188 55.0806 63.1062 53.9842 63.1017 53.6953C63.0897 53.4039 63.1879 53.3075 63.2478 53.2833C63.2478 53.2833 63.6859 54.3064 64.5405 55.4454C65.3077 56.4646 65.9857 56.9703 66.2779 56.9703C66.3147 56.9703 66.3442 56.9626 66.3684 56.9485C66.5878 56.8153 66.4246 56.5564 66.2957 56.3394C66.1758 56.1162 65.811 55.4249 65.656 54.8961C65.5074 54.3776 65.353 53.8981 65.6412 53.6774C65.9066 54.2527 66.5207 55.1174 67.1714 55.7379C67.1785 55.746 67.1871 55.7526 67.1967 55.7572C67.2063 55.7618 67.2168 55.7644 67.2275 55.7649C67.2563 55.7649 67.2869 55.7424 67.3136 55.7035C67.3615 55.6398 68.8659 53.4503 69.1873 51.0783C69.5102 48.7103 69.4037 46.1753 68.0821 44.4314C67.5037 43.6694 66.6337 43.3454 65.8595 43.3454C65.6177 43.3454 65.3869 43.3765 65.1757 43.4372C64.5182 43.6348 64.068 44.1144 64.0716 44.6284C64.0716 45.3919 64.6761 45.5551 64.6761 45.5551C64.6761 45.5551 64.4739 45.9812 63.7533 46.0678C63.6186 46.0845 63.488 46.092 63.3629 46.092C62.8207 46.092 62.3642 45.9199 61.9432 45.3254C61.535 44.7535 61.5485 43.5754 61.5249 43.1826C61.5063 42.784 61.421 41.8897 61.0018 41.5249C60.5841 41.1505 60.0753 41.0248 59.4405 41C59.3944 41.0016 59.3529 41.0016 59.314 41.0016Z" fill="black"/>
</g>
</svg>
