<svg width="121" height="121" viewBox="0 0 121 121" fill="none" xmlns="http://www.w3.org/2000/svg">
<g opacity="0.8">
<path d="M39.0277 72.0189V71.9659C39.4564 71.7095 39.894 71.3912 40.3493 71.0155C40.8002 70.6398 41.2201 70.1713 41.5958 69.6143C41.9715 69.0574 42.2765 68.4164 42.5064 67.6915C42.7362 66.9622 42.8512 66.1223 42.8512 65.1631C42.8512 63.8282 42.5992 62.5994 42.0953 61.4811C41.5914 60.3628 40.9018 59.3947 40.0266 58.5814C39.1558 57.7681 38.1392 57.136 36.9855 56.6807C35.8318 56.2299 34.603 56 33.3035 56C32.0039 56 30.7751 56.2254 29.617 56.6807C28.4633 57.1316 27.4511 57.7681 26.5759 58.5814C25.7051 59.3947 25.0155 60.3628 24.5116 61.4811C24.0077 62.6038 23.7558 63.8282 23.7558 65.1631C23.7558 66.6351 24.0077 67.9567 24.5116 69.1325C25.0155 70.3039 25.7095 71.2984 26.5891 72.1073C27.4688 72.9206 28.5119 73.5439 29.7187 73.9815C30.9254 74.4191 32.2382 74.6357 33.6571 74.6357H44.2347V72.0189H39.0277ZM39.0011 67.8197C38.6917 68.6153 38.2674 69.3005 37.7193 69.8751C37.1712 70.4497 36.517 70.9006 35.7567 71.2233C34.9964 71.5504 34.1698 71.7095 33.2814 71.7095C32.3885 71.7095 31.5751 71.546 30.8281 71.2233C30.0855 70.9006 29.4358 70.4497 28.8921 69.8751C28.344 69.3005 27.9152 68.6198 27.6102 67.8197C27.3008 67.0241 27.1505 66.1665 27.1505 65.2383C27.1505 64.3321 27.3052 63.4923 27.6102 62.7232C27.9196 61.9541 28.344 61.2866 28.8788 60.7208C29.4181 60.155 30.059 59.7174 30.8016 59.3992C31.5486 59.0809 32.3575 58.9218 33.2283 58.9218C34.1521 58.9218 34.9964 59.0809 35.7567 59.3992C36.517 59.713 37.1756 60.155 37.7193 60.7208C38.2674 61.2866 38.6961 61.9541 39.0011 62.7232C39.3106 63.4923 39.4608 64.3321 39.4608 65.2383C39.4653 66.1665 39.3106 67.0241 39.0011 67.8197ZM10 74.6357H22.5004V71.7095H13.2356V66.7809H21.5766V63.8548H13.2356V59.3903H22.0407V56.4597H10V74.6357Z" fill="black"/>
<path d="M113.212 56.4644H109.977V74.6403H113.212V56.4644ZM102.608 59.3861H108.178V56.4644H93.8032V59.3905H99.3727V74.6403H102.608V59.3861ZM88.7995 74.6359H92.0351V56.4644H88.7995V74.6359ZM81.5857 74.6359H85.6921V56.4644H82.4565V69.9637H82.4035L73.6072 56.4644H69.3196V74.6403H72.5552V60.6989H72.6038L81.5857 74.6359ZM63.0031 74.6359H66.2387V56.4644H63.0031V74.6359ZM59.4094 70.9273C59.7851 70.0477 59.9752 69.0576 59.9752 67.9614V56.4644H56.7396V67.8597C56.7396 68.3062 56.6689 68.7703 56.5318 69.2609C56.3948 69.7471 56.1694 70.198 55.8511 70.6091C55.5329 71.0202 55.1129 71.3561 54.5958 71.6213C54.0742 71.8865 53.4288 72.0191 52.6553 72.0191C51.8818 72.0191 51.2408 71.8865 50.7192 71.6213C50.1977 71.3561 49.7777 71.0202 49.4639 70.6091C49.1456 70.198 48.9202 69.7471 48.7832 69.2609C48.6462 68.7747 48.5798 68.3062 48.5798 67.8597V56.4644H45.3442V67.9658C45.3442 69.062 45.5299 70.0477 45.8968 70.9318C46.2636 71.8114 46.7764 72.5628 47.4394 73.1772C48.098 73.7917 48.8716 74.269 49.7601 74.6006C50.6485 74.9365 51.6165 75.1 52.6597 75.1C53.7029 75.1 54.6709 74.9321 55.5594 74.6006C56.4479 74.269 57.2214 73.7917 57.8712 73.1772C58.5209 72.5584 59.0337 71.807 59.4094 70.9273Z" fill="black"/>
</g>
</svg>
