<svg width="121" height="121" viewBox="0 0 121 121" fill="none" xmlns="http://www.w3.org/2000/svg">
<g opacity="0.8">
<path fill-rule="evenodd" clip-rule="evenodd" d="M69.0019 75.2039C69.0019 75.4315 68.8207 75.5686 68.3655 75.5686C66.0046 75.5686 63.4603 75.4315 63.2338 75.4315C63.1862 75.4315 60.5072 75.5686 59.2356 75.5686C58.8268 75.5686 58.5992 75.4768 58.5992 75.2039C58.5992 75.0681 58.6909 74.9763 58.9174 74.9763C59.2356 74.9763 59.7349 74.8857 60.0984 74.794C60.9171 74.6581 61.1435 73.7476 61.2806 72.6548C61.507 71.0162 61.507 67.7389 61.507 64.3246V60.6719C59.7732 61.0857 57.9982 61.3028 56.2157 61.319C53.2626 61.319 47.5399 61.0914 42.9052 57.2218C40.4526 55.1732 38 51.3489 38 46.1601C38 39.969 41.1343 35.5536 44.8596 33.3227C48.3574 31.2729 52.2174 31 54.9894 31C57.8961 31 59.8493 31.3647 61.4844 31.6376C62.2113 31.7746 63.9834 32.0023 64.9368 32.0475C65.3003 32.0475 65.3003 32.2299 65.3003 32.4122C65.3003 32.958 64.9821 34.3249 64.9821 38.3304C64.9821 38.968 64.9368 39.1491 64.6186 39.1491C64.3922 39.1491 64.3469 38.875 64.3005 38.6033C64.3005 38.1933 64.1193 36.7823 63.4376 35.7813C62.3925 34.2785 59.1224 32.5945 54.0348 32.5945C51.5822 32.5945 48.7197 32.6851 45.676 35.0066C43.3604 36.7823 41.8612 40.2419 41.8612 44.7491C41.8612 50.1655 44.8132 54.1721 45.9942 55.3103C48.9926 58.2229 52.3545 59.5433 56.3063 59.5433C57.5779 59.5433 59.5764 59.3169 60.6204 58.7687C61.0756 58.4958 61.3938 58.0417 61.3938 57.4029V51.4478C61.3938 49.7675 61.3223 48.8439 60.9827 48.3136C60.8517 48.1371 60.6863 47.9891 60.4964 47.8786C60.2569 47.7546 59.9566 47.6772 59.5764 47.6235C59.3047 47.5783 54.9036 47.5318 54.5401 47.5318C54.1766 47.5318 53.9955 47.1266 53.9955 46.8704C53.9955 46.6427 54.1766 46.2971 54.676 46.2971C56.4934 46.2971 63.0742 46.3877 63.2565 46.3877C63.3554 46.3877 64.1992 46.3603 65.143 46.3365V50.7233C65.143 50.7483 65.143 50.7757 65.1406 50.8007V64.2328C65.1406 67.7389 65.1406 71.0162 65.323 72.6548C65.4588 73.7476 65.6864 74.6569 66.9127 74.794C67.4574 74.8857 68.3667 74.9763 68.7289 74.9763C68.9113 74.9763 69.0019 75.0681 69.0019 75.2039ZM68.555 61.6384C72.1433 61.6384 75.1417 59.181 75.1417 55.1744C75.1417 54.5821 75.2775 51.8506 73.1872 49.6662C70.9623 47.2982 68.3726 47.527 67.5551 47.527L67.5015 47.5282C67.5015 47.5282 66.6565 47.5234 66.6565 46.8978C66.6565 46.4831 67.1594 46.3639 67.5026 46.3293V46.3234L67.6028 46.321C67.7243 46.3126 67.8113 46.315 67.8113 46.315C68.2402 46.3039 68.6693 46.2979 69.0984 46.2971C74.0965 46.2971 75.9139 47.937 76.5491 48.4828C77.4119 49.2562 78.5477 51.0319 78.5477 53.581C78.5477 58.634 74.3682 62.3212 68.692 62.3212C68.5097 62.3212 67.2929 62.3212 67.0653 62.276C66.8841 62.276 66.6565 62.1842 66.6565 62.0019C66.6565 61.6384 67.6921 61.6384 68.555 61.6384ZM75.8341 60.8923C76.3859 60.5062 76.9841 59.9974 77.2689 59.4563C78.5739 59.4849 79.5285 59.6148 80.4104 59.815C81.2732 59.9974 81.6378 60.0426 81.9548 60.0426C82.273 60.0426 82.3636 60.1344 82.3636 60.3167C82.3636 60.4979 82.1813 62.0924 82.1813 64.7321C82.1813 65.415 82.0919 65.6879 81.8643 65.6879C81.6378 65.6879 81.5902 65.5068 81.5461 65.1874C81.5008 64.7774 81.4102 63.8204 81.0015 63.047C80.775 62.6382 79.7287 60.9078 75.9127 60.9078L75.8341 60.8923ZM77.0497 72.4248C81.7725 76.0667 83 78.4788 83 81.712C83 83.3506 82.3183 86.2644 79.5475 88.176C77.7754 89.3141 75.5957 89.7693 73.4149 89.7693C71.5081 89.7693 69.736 89.5417 68.0091 88.7683C67.4192 88.4942 67.4192 88.313 67.4192 87.219C67.4192 85.1263 67.5551 83.5783 67.6004 82.9407C67.6457 82.5307 67.7374 82.3043 67.9639 82.3043C68.1903 82.3043 68.282 82.4401 68.282 82.7583C68.282 83.0324 68.282 83.5783 68.4179 84.1241C69.009 87.0832 71.6892 88.2213 74.323 88.2213C78.0936 88.2213 79.911 85.6269 79.911 83.3506C79.911 80.7562 78.73 79.1617 75.4134 76.4767L73.5972 75.0657C69.2354 71.5608 68.3273 69.1475 68.3273 66.4613C68.3273 65.1171 68.6729 63.9158 69.3046 62.9004C70.188 62.9751 71.0776 62.9047 71.9383 62.6919C71.433 63.3807 71.1434 64.253 71.1434 65.2779C71.1434 67.4171 72.2338 68.7376 76.0045 71.6061L77.0485 72.4248H77.0497Z" fill="black"/>
</g>
</svg>
