<svg width="705" height="36" viewBox="0 0 705 36" fill="none" xmlns="http://www.w3.org/2000/svg">
<path d="M675.157 2.01153C665.946 2.85784 656.308 3.16173 646.87 3.38148C641.511 3.50333 636.179 3.56788 630.823 3.61296C623.157 3.67995 615.493 3.69895 607.829 3.67956C593.215 3.64883 578.602 3.53173 563.967 3.38557C534.67 3.09296 505.397 2.83902 476.111 3.06491C445.744 3.29779 415.377 3.49228 385.009 3.74435C356.214 3.98538 327.443 4.2267 298.627 4.32351C269.786 4.42964 240.971 4.48806 212.146 4.87277C182.659 5.26918 153.156 5.31983 123.631 5.30303C109.63 5.29844 95.5783 5.33167 81.6388 5.75016C74.3615 5.97513 67.0832 6.23849 59.8288 6.52132C52.722 6.79621 45.5698 6.94579 38.4164 7.13376C31.8286 7.29932 25.3483 7.13971 18.7725 6.88302C14.0766 7.03156 10.4655 7.90273 7.98845 9.49711C6.65789 10.5092 5.30301 11.5115 3.97238 12.5237C1.48915 15.2027 0.255546 17.9919 0.223212 20.8619C0.0678716 23.7401 1.16734 26.546 3.49703 29.2795C4.76939 30.321 6.06656 31.3532 7.33886 32.3948C9.72391 34.0441 13.2833 34.9963 17.9677 35.2508C21.5807 35.1764 25.219 35.0736 28.8314 35.0184C32.1244 34.9692 35.4395 35.0066 38.7545 35.0441C45.8272 35.1048 52.8774 35.0885 59.9282 35.0529C74.5949 34.9786 89.2408 34.7697 103.906 34.7626C132.326 34.7477 160.763 35.0402 189.168 34.7084C204.403 34.5349 219.614 34.3036 234.824 34.1395C248.657 33.9886 262.513 33.9435 276.343 33.8982C305.798 33.8086 335.255 33.6134 364.691 33.3412C393.757 33.0745 422.847 32.8463 451.914 32.5604C467.983 32.4059 484.052 32.2803 500.144 32.1837C514.54 32.0968 528.98 32.2215 543.396 32.3268C572.916 32.5356 602.41 32.7824 631.897 32.434C639.145 32.3527 646.396 32.2042 653.649 31.9502C659.526 31.7478 665.405 31.4302 671.19 31.0156C675.67 30.6918 680.008 30.1552 684.346 29.6475C686.884 29.3497 689.378 28.8787 691.58 28.3276C695.965 27.0332 699.009 25.3492 700.738 23.276C704.806 19.3093 705.458 14.5072 703.711 10.2827C702.85 7.73868 700.731 5.3628 697.33 3.15483C695.679 2.4546 694.004 1.75409 692.354 1.05386C688.502 0.0311622 684.647 -0.0123969 680.739 0.922628C678.982 1.37317 677.105 1.72635 675.157 2.01153Z" fill="white"/>
</svg>
