<svg width="17" height="16" viewBox="0 0 17 16" fill="none" xmlns="http://www.w3.org/2000/svg">
<path d="M3.58726 16H0.264716V5.31762H3.58726V16ZM1.9242 3.86044C0.861757 3.86044 0 2.98185 0 1.92111C7.60449e-09 1.4116 0.202727 0.92296 0.563585 0.562681C0.924442 0.202403 1.41387 0 1.9242 0C2.43453 0 2.92395 0.202403 3.28481 0.562681C3.64567 0.92296 3.8484 1.4116 3.8484 1.92111C3.8484 2.98185 2.98628 3.86044 1.9242 3.86044ZM16.0225 16H12.7071V10.7999C12.7071 9.56057 12.682 7.97125 10.9796 7.97125C9.25218 7.97125 8.98746 9.31771 8.98746 10.7106V16H5.6685V5.31762H8.8551V6.77479H8.90161C9.34518 5.93549 10.4287 5.04976 12.0453 5.04976C15.4079 5.04976 16.026 7.26052 16.026 10.132V16H16.0225Z" fill="white"/>
</svg>
