<svg width="121" height="121" viewBox="0 0 121 121" fill="none" xmlns="http://www.w3.org/2000/svg">
<g opacity="0.8">
<path fill-rule="evenodd" clip-rule="evenodd" d="M75.5314 49.1461C74.8126 50.4295 74.4482 51.8257 74.2704 53.4009C73.2867 52.435 72.8261 51.3283 72.5019 50.1567C72.3687 49.6826 72.2588 49.202 72.1488 48.7215L72.1488 48.7213L72.1488 48.7211L72.1487 48.7209C72.0475 48.2782 71.9462 47.8355 71.8267 47.3977C71.6277 46.6711 71.0386 46.2675 70.3365 46.2999C69.6088 46.3335 69.1281 46.7572 68.9783 47.5397C68.9224 47.8292 68.9112 48.1322 68.9246 48.4273C69.0867 52.0013 67.8827 55.147 65.8459 58.0033C65.7886 58.0837 65.7353 58.1594 65.6855 58.2304C65.0391 59.1501 64.9641 59.2569 64.0103 58.0167C62.4665 56.0078 61.5744 53.696 61.097 51.2142C60.9353 50.3739 60.9251 49.5289 60.9149 48.6835V48.6834V48.6833V48.6832C60.911 48.3602 60.9071 48.037 60.8947 47.7141C60.8612 46.8689 60.3078 46.3458 59.5253 46.3066C58.7349 46.2675 58.1167 46.7818 57.9781 47.6079C57.9289 47.9008 57.8987 48.197 57.8696 48.4933C57.6919 50.3222 56.7584 51.5999 55.0883 52.3623C54.7395 52.5222 54.5819 52.5691 54.4656 52.0884C54.0542 50.3825 53.3008 48.8409 52.0543 47.5721C51.4596 46.9673 50.7866 46.4877 49.9549 46.2519C47.4664 45.5454 45.5123 47.1048 45.7963 49.6637C46.0422 51.8872 47.2943 53.4981 49.1936 54.6261C49.918 55.0565 50.7039 55.3427 51.5267 55.5193C51.7737 55.573 51.871 55.6479 51.824 55.9217C51.5043 57.811 49.2025 59.3951 47.2954 59.0776C44.95 58.6863 42.7656 55.251 44.2748 52.7245C44.6772 52.0493 44.5219 51.392 43.9092 50.9661C43.2352 50.4977 42.5096 50.5726 41.9518 51.1818C41.3157 51.8772 41.119 52.7458 41.0183 53.6412C40.7657 55.8927 39.5338 57.5349 37.7384 58.778C36.5959 59.5695 35.7005 59.3157 34.9805 58.1285C34.3836 57.1447 34.0974 56.0492 33.8515 54.9391C33.8012 54.7141 33.8972 54.5477 33.9959 54.3768L33.9959 54.3767C34.0071 54.3575 34.0182 54.3381 34.0292 54.3187C35.2857 52.0806 36.3701 49.761 37.27 47.3564C38.4282 44.262 39.0497 41.0659 39.0642 37.7636C39.071 36.231 38.9234 34.7106 38.0827 33.3602C37.5081 32.4357 36.6921 31.9494 35.5719 32.0042C34.5088 32.0556 33.7676 32.6291 33.1707 33.4362C32.6575 34.1304 32.3244 34.9186 32.0561 35.7335C31.1417 38.5081 30.7247 41.3733 30.5659 44.2754C30.3368 48.4485 30.4374 52.6038 31.5016 56.6819C31.8716 58.0972 32.3803 59.4465 33.3786 60.5555C34.6441 61.9618 36.3176 62.3184 38.0347 61.5336C39.2565 60.9747 40.2548 60.1172 41.1491 59.1301C41.3237 58.938 41.493 58.7418 41.6737 58.5326L41.6738 58.5325L41.674 58.5322C41.7455 58.4494 41.8187 58.3646 41.8948 58.2772C42.636 59.6611 43.6231 60.7176 45.0104 61.3514C48.5955 62.9891 52.8245 61.1222 54.2812 57.2532C54.3595 57.045 54.4036 56.8123 54.4472 56.5821C54.5192 56.2015 54.59 55.8279 54.8122 55.5841C55.0296 55.3462 55.3856 55.2501 55.7516 55.1512C55.9858 55.0879 56.2242 55.0235 56.4331 54.9201C57.2145 54.5322 57.9188 54.0325 58.6007 53.4355C58.8948 54.3265 59.1709 55.1549 59.5219 55.9542C60.4062 57.9675 61.5341 59.8188 63.2401 61.2419C64.4172 62.2256 65.4826 62.1798 66.6608 61.2038C66.8889 61.0138 67.1069 60.8081 67.3115 60.5935C68.5691 59.2743 69.554 57.7741 70.2527 56.0917C70.4975 55.502 70.7248 54.9051 70.9577 54.2937L70.9577 54.2937L70.9578 54.2934C71.0684 54.0032 71.1802 53.7096 71.2957 53.412L71.3889 53.5779C71.447 53.6813 71.4993 53.7742 71.5506 53.867C72.1576 54.9726 72.9927 55.8547 74.1285 56.4136C74.4627 56.578 74.6192 56.8004 74.7355 57.1358C75.4398 59.1637 76.7723 60.6169 78.7845 61.3961C81.4127 62.4145 83.9023 62.011 86.2443 60.542C88.071 59.3962 89.4404 57.773 90.7528 56.1006C90.9563 55.8413 91.0177 55.5305 90.9719 55.2029C90.8925 54.6417 90.6119 54.2158 90.0642 54.0392C89.4829 53.8514 88.9563 53.9799 88.5539 54.4651C88.42 54.6265 88.2868 54.7885 88.1535 54.9504L88.1516 54.9527L88.1515 54.9528C87.517 55.724 86.8831 56.4945 86.1806 57.2062C85.3802 58.0178 84.4344 58.5868 83.3556 58.939C81.1824 59.6488 78.903 58.9077 77.7214 57.1336C77.5023 56.8049 77.4766 56.6652 77.9237 56.5578C79.1993 56.2504 80.391 55.7295 81.4731 54.9849C82.8615 54.0291 83.9079 52.7961 84.3651 51.1461C84.8223 49.5005 84.5596 47.9857 83.2662 46.7963C81.975 45.6113 80.4468 45.4526 78.8404 46.0495C77.3145 46.6163 76.3039 47.7655 75.5314 49.1461ZM33.2699 49.1739L33.2701 49.5496C33.4058 49.5573 33.4288 49.4874 33.4473 49.4313L33.4473 49.4313C33.4504 49.4218 33.4534 49.4126 33.4568 49.4043C34.8676 46.2552 35.933 43.0065 36.2762 39.5533C36.4115 38.1996 36.4226 36.8447 36.0817 35.5132C36.068 35.4596 36.0561 35.4016 36.044 35.3423L36.044 35.3422L36.044 35.3422C35.9859 35.0575 35.9211 34.74 35.6122 34.7095C35.3392 34.6832 35.2226 34.9596 35.1165 35.2111L35.1165 35.2111C35.0914 35.2707 35.0668 35.3289 35.0409 35.3813C34.5859 36.3014 34.2897 37.2762 34.0773 38.2767C33.3685 41.6203 33.2768 45.0143 33.2701 48.415C33.2694 48.6687 33.2696 48.9218 33.2699 49.1739ZM78.5241 49.628C77.6376 50.7973 77.1893 52.1343 77.0484 53.6547C76.9366 54.0493 77.1557 54.0862 77.5269 53.9755C78.7387 53.6144 79.8287 53.0476 80.6917 52.103C81.2383 51.5049 81.6564 50.8286 81.7738 50.0125C81.9169 49.0232 81.1567 48.3122 80.1819 48.4944C79.4631 48.6286 78.9477 49.069 78.5241 49.628ZM51.5781 52.5747C50.2645 52.018 49.4071 51.1505 48.7677 50.0494C48.6592 49.8627 48.6045 49.6369 48.562 49.4211C48.5195 49.2054 48.6089 49.0131 48.809 48.9047C48.9912 48.8063 49.1679 48.8566 49.3311 48.9717C49.673 49.2115 49.9079 49.5445 50.1426 49.8774C50.175 49.9232 50.2073 49.9691 50.2399 50.0147C50.7799 50.7693 51.2058 51.5832 51.5781 52.5747ZM96.7653 57.1201C97.1098 57.1196 97.4543 57.1191 97.799 57.1191C98.1338 57.1191 98.4685 57.1196 98.8031 57.1202C99.6395 57.1215 100.475 57.1229 101.311 57.1157C102.134 57.109 102.627 56.6574 102.636 55.933C102.645 55.1773 102.153 54.7089 101.301 54.7055C98.9594 54.6977 96.6173 54.6988 94.2753 54.7055C93.4302 54.7078 92.9037 55.1862 92.907 55.9151C92.9104 56.6417 93.4403 57.1113 94.2854 57.1168C95.1123 57.1224 95.9386 57.1212 96.7651 57.1201H96.7652H96.7653ZM23.835 57.1192C23.4804 57.1192 23.1259 57.1196 22.7713 57.12C21.9733 57.121 21.1753 57.1219 20.3773 57.1181C19.5087 57.1136 19.0079 56.6754 19.0001 55.932C18.9923 55.1606 19.4953 54.7079 20.3941 54.7067C22.6992 54.7012 25.0044 54.7023 27.3095 54.7067C28.2004 54.709 28.7359 55.174 28.7303 55.9208C28.7247 56.6631 28.187 57.117 27.2938 57.1203C26.5733 57.1217 25.8531 57.1209 25.1332 57.1201H25.1314H25.1313H25.1311H25.1309C24.6989 57.1197 24.267 57.1192 23.835 57.1192ZM69.0006 79.1351C69.0006 79.4863 68.9998 79.8376 68.9989 80.1888V80.1889V80.1889V80.189V80.1891V80.1892V80.1892V80.1893C68.9967 81.1022 68.9944 82.0149 69.0073 82.927C69.0118 83.2669 68.9134 83.3786 68.5691 83.3697C67.7139 83.3485 66.8576 83.3406 66.0024 83.3719C65.591 83.3865 65.5183 83.23 65.5195 82.8599C65.5256 81.8224 65.525 80.7847 65.5244 79.7469C65.5235 78.3124 65.5227 76.8779 65.5396 75.4438C65.5452 74.934 65.3909 74.8177 64.9136 74.8356C64.7806 74.8406 64.6359 74.8593 64.4893 74.8783L64.4892 74.8783C64.0727 74.9322 63.6414 74.988 63.4223 74.735C63.2342 74.5178 63.2716 74.095 63.3076 73.6878C63.32 73.548 63.3322 73.41 63.3351 73.2828C63.3385 73.1396 63.3201 72.9819 63.3017 72.8241L63.3017 72.824V72.824C63.259 72.4583 63.2163 72.0916 63.4435 71.9011C63.6399 71.7364 64.0039 71.768 64.3641 71.7993C64.5124 71.8121 64.6601 71.825 64.7951 71.824L64.8046 71.8239C65.1596 71.8212 65.3397 71.8198 65.4312 71.7291C65.5253 71.6357 65.5256 71.4477 65.5262 71.0662V71.0627L65.5263 70.9308C65.5265 70.2136 65.5268 69.4982 65.7375 68.7967C66.2573 67.0617 67.5708 65.9729 69.3684 65.8119C70.019 65.7538 70.6674 65.7571 71.3113 65.8845C71.555 65.9326 71.7071 66.0153 71.6981 66.3161C71.6769 67.0405 71.678 67.766 71.697 68.4904C71.7059 68.8258 71.5651 68.8537 71.2923 68.7956C70.8865 68.7095 70.4774 68.7251 70.0794 68.8548C69.4031 69.0751 69.0565 69.5524 69.0062 70.3226C68.9561 71.0775 68.9313 71.4526 69.1068 71.6389C69.28 71.8229 69.6487 71.8229 70.3812 71.8229C71.327 71.8229 71.327 71.8229 71.327 72.7563C71.327 72.9142 71.3239 73.0723 71.3208 73.2304V73.2306C71.3137 73.5939 71.3067 73.957 71.337 74.3169C71.3762 74.7875 71.1794 74.8848 70.7636 74.8569C70.5386 74.841 70.3123 74.8452 70.0858 74.8495H70.0858H70.0857H70.0856H70.0855H70.0854H70.0854H70.0853H70.0852H70.0852H70.0851H70.085H70.085H70.0849H70.0849C69.8648 74.8536 69.6446 74.8578 69.4254 74.8434C69.0722 74.82 68.9861 74.9552 68.9906 75.2884C69.0056 76.2501 69.0038 77.2118 69.0019 78.1736C69.0013 78.4941 69.0006 78.8146 69.0006 79.1351ZM90.271 75.399C90.1856 75.399 90.1001 75.3978 90.0147 75.3967C89.8208 75.394 89.6269 75.3914 89.4337 75.4023C88.9966 75.4258 88.6768 75.4191 88.4544 74.878C88.1816 74.214 86.678 74.2117 86.2454 74.802C85.9771 75.1687 86.0923 75.6002 86.5472 75.883C86.8356 76.0627 87.1602 76.1418 87.4841 76.2207C87.5934 76.2474 87.7027 76.274 87.8105 76.3045C88.0109 76.3611 88.2128 76.4131 88.4147 76.4651L88.4149 76.4652L88.415 76.4652C88.9866 76.6125 89.5583 76.7599 90.0977 77.011C91.7064 77.76 92.499 79.1987 92.1446 80.7403C91.9512 81.5832 91.4593 82.2372 90.7282 82.6631C88.6534 83.8716 86.5148 84.0504 84.3629 82.871C83.2975 82.2875 82.62 81.3876 82.4199 80.1612C82.3618 79.8035 82.411 79.6146 82.8526 79.6347C83.5448 79.6654 84.2389 79.6548 84.9316 79.6442L85.1957 79.6403C85.4461 79.6369 85.5735 79.6962 85.6876 79.9578C86.0934 80.8901 87.2806 81.2545 88.1984 80.7683C88.5159 80.6006 88.735 80.358 88.7339 79.9835C88.7327 79.6045 88.5069 79.3642 88.176 79.2211C87.74 79.0315 87.2805 78.9201 86.8213 78.8087L86.8211 78.8086C86.6305 78.7624 86.4399 78.7162 86.251 78.6644C85.4595 78.4475 84.6837 78.1926 83.9939 77.7331C82.2713 76.5873 82.0812 74.2945 83.587 72.8837C85.3578 71.2258 88.7976 71.114 90.6656 72.6567C91.409 73.2716 91.7656 74.0821 91.8718 75.0267C91.9076 75.3442 91.7768 75.4135 91.4984 75.4034C91.2082 75.3931 90.9179 75.3952 90.6276 75.3973H90.6273C90.5085 75.3981 90.3898 75.399 90.271 75.399ZM38.3454 73.5891C37.0688 72.204 35.4758 71.5892 33.525 71.5691C31.666 71.606 29.9701 72.2555 28.689 73.7691C25.9233 77.0345 27.5264 82.0561 31.6693 83.3451C34.4518 84.2103 37.2231 82.9896 38.4215 81.4871C38.635 81.2188 38.6361 81.0936 38.341 80.8991C37.6277 80.4296 36.9335 79.9299 36.2449 79.4235C36.0012 79.2446 35.8682 79.2033 35.62 79.4682C34.3176 80.8577 31.9644 80.5168 31.069 78.8321C30.4396 77.6471 30.7538 76.2296 31.8191 75.4426C32.9728 74.5908 34.6139 74.6467 35.5429 75.6461C35.8693 75.996 36.0414 75.9121 36.3388 75.6874C36.9615 75.2179 37.592 74.7551 38.2448 74.3292C38.6093 74.0922 38.6551 73.9245 38.3454 73.5891ZM74.8271 77.6794C74.8271 77.4456 74.8262 77.2117 74.8253 76.9779V76.9778V76.9778V76.9777V76.9776V76.9775C74.823 76.3932 74.8208 75.8091 74.8327 75.2256C74.8383 74.9316 74.7388 74.8332 74.4493 74.8444C74.229 74.8532 74.0085 74.8509 73.7879 74.8485H73.7877C73.5617 74.8461 73.3357 74.8437 73.11 74.8533C72.8127 74.8667 72.7244 74.7527 72.73 74.4654C72.7456 73.7041 72.7434 72.9406 72.7311 72.1793C72.7266 71.9166 72.816 71.8093 73.0843 71.8182C73.2452 71.8237 73.4066 71.8203 73.568 71.8169C73.798 71.8121 74.0279 71.8072 74.2559 71.8283C74.7053 71.8696 74.892 71.7422 74.8551 71.2559C74.8326 70.9596 74.8378 70.6615 74.843 70.3635V70.3634C74.8479 70.0847 74.8528 69.8059 74.835 69.5287C74.8104 69.1475 74.9244 68.9631 75.2989 68.8558C76.1552 68.6098 77.0048 68.3371 77.8466 68.0442C78.2088 67.9178 78.3284 67.9626 78.3184 68.3751C78.3056 68.8631 78.308 69.3513 78.3103 69.8396C78.3127 70.3368 78.3151 70.8339 78.3016 71.3308C78.2904 71.7265 78.419 71.8517 78.8069 71.8294C79.0873 71.8131 79.3685 71.8165 79.6497 71.8198C79.8707 71.8225 80.0918 71.8251 80.3127 71.8182C80.5978 71.8093 80.7118 71.9021 80.7051 72.1983C80.6905 72.9607 80.6894 73.7231 80.7051 74.4844C80.7118 74.7896 80.5832 74.8623 80.306 74.8533C80.0404 74.8456 79.7745 74.8474 79.5086 74.8492C79.2351 74.851 78.9616 74.8529 78.6884 74.8444C78.3933 74.8354 78.3061 74.9472 78.3094 75.2334C78.3148 75.7824 78.3131 76.3315 78.3115 76.8804V76.8805V76.8805V76.8806V76.8807V76.8807C78.3094 77.5958 78.3073 78.3108 78.3206 79.0253C78.3407 80.0695 78.9556 80.5546 80.1439 80.4171C80.6458 80.359 80.7364 80.4987 80.7107 80.9548C80.6727 81.6222 80.6883 82.293 80.7073 82.9615C80.7151 83.2331 80.6145 83.3639 80.3619 83.4411C79.0908 83.829 77.8522 83.7418 76.6806 83.128C75.4431 82.4797 74.911 81.3674 74.8439 80.0203C74.817 79.4842 74.8239 78.9471 74.8309 78.4096V78.4094C74.834 78.1657 74.8372 77.922 74.8372 77.6783L74.8358 77.6788L74.8336 77.6791C74.8316 77.6794 74.8292 77.6794 74.8271 77.6794ZM43.8987 74.0302C43.862 74.1132 43.8253 74.1963 43.7874 74.2788C43.7574 74.2687 43.7273 74.2576 43.6973 74.2465L43.6972 74.2465L43.6969 74.2463C43.6969 74.0587 43.6956 73.8711 43.6944 73.6834V73.6833V73.6833V73.6833V73.6832C43.6914 73.2211 43.6885 72.7589 43.7036 72.2978C43.7159 71.9535 43.6387 71.8004 43.2508 71.8127C42.3967 71.8406 41.5404 71.835 40.6863 71.8149C40.3443 71.806 40.2425 71.9211 40.2436 72.2598C40.2537 75.8271 40.2548 79.3932 40.2436 82.9604C40.2425 83.2891 40.3577 83.3696 40.6629 83.364C41.5169 83.3483 42.3733 83.336 43.2273 83.3684C43.6421 83.3841 43.7114 83.222 43.7058 82.8553C43.6879 81.5731 43.6901 80.2908 43.7091 79.0097C43.7226 78.1355 43.812 77.2658 44.1317 76.4397C44.5744 75.2949 45.3882 74.7382 46.609 74.7349C47.0763 74.7337 47.5469 74.7472 47.9784 74.9361C48.3116 75.0825 48.3876 74.9406 48.4401 74.6521L48.4528 74.5833C48.586 73.8583 48.7194 73.1326 48.8906 72.4152C48.9734 72.0675 48.8739 71.9233 48.5497 71.8037C46.7621 71.1464 45.0473 71.7948 44.1518 73.4918C44.059 73.6674 43.9789 73.8488 43.8987 74.0302ZM58.2609 82.1455C56.0363 84.2047 52.8458 84.0348 50.6647 81.8302C48.9141 80.0606 48.4591 77.2066 49.5603 74.8992C50.62 72.6791 52.9654 71.3644 55.4494 71.6148C56.517 71.7222 57.4437 72.1436 58.1648 72.944C58.27 72.8787 58.2655 72.8001 58.2613 72.7262C58.2603 72.709 58.2594 72.6921 58.2598 72.6757L58.2599 72.6723C58.2711 72.2435 58.2767 72.0309 58.3858 71.9254C58.4932 71.8216 58.7008 71.8216 59.1128 71.8216C59.3234 71.8216 59.5341 71.8225 59.7448 71.8233H59.7453C60.2599 71.8254 60.7743 71.8275 61.2882 71.8172C61.571 71.8116 61.6772 71.8943 61.6772 72.1928C61.6683 75.798 61.6694 79.4033 61.6761 83.0074C61.6761 83.2679 61.599 83.3662 61.3284 83.3629C60.4173 83.3506 59.5063 83.3484 58.5952 83.364C58.3146 83.3685 58.2385 83.2645 58.2576 83.0063C58.2695 82.8372 58.267 82.6671 58.264 82.4672V82.467C58.2625 82.3682 58.2609 82.2622 58.2609 82.1455ZM55.427 80.3298C53.8329 80.3186 52.5048 79.0442 52.5283 77.5473C52.5518 76.0325 53.8799 74.8196 55.4908 74.8386C57.0715 74.8576 58.2609 76.0381 58.2576 77.5842C58.2553 79.1459 57.0223 80.341 55.427 80.3298Z" fill="black"/>
</g>
</svg>
