<svg width="121" height="121" viewBox="0 0 121 121" fill="none" xmlns="http://www.w3.org/2000/svg">
<g opacity="0.8">
<path d="M8.59225 63.859H8.62937C10.0769 62.4485 11.2646 62.0403 13.0462 62.0403C16.7579 62.0403 18.2426 64.3786 18.2426 67.7748V76.293H13.3617V69.5749C13.3617 68.2573 13.5844 65.9375 11.1719 65.9375C9.18612 65.9375 8.61081 67.4222 8.61081 69.1481V76.293H3.71143V62.4857H8.59225V63.859ZM30.6209 67.5706C30.3797 66.253 29.1919 65.2137 27.9114 65.2137C26.5196 65.2137 25.3504 66.1231 25.072 67.5706H30.6209ZM34.9265 70.3915H24.905C24.905 71.8761 26.1669 73.2866 27.9114 73.2866C29.3404 73.2866 30.3797 72.4329 30.7323 71.8019H34.8337C34.0913 75.0496 31.0292 76.757 28.0042 76.757C23.6059 76.757 20.3396 74.1774 20.3396 69.4079C20.3396 64.824 23.3646 62.0403 27.6702 62.0403C32.2541 62.0403 34.9079 65.1766 34.9079 69.8904L34.9265 70.3915ZM46.0614 66.4571C45.3748 65.9561 44.3355 65.5849 43.5375 65.4921C42.9808 65.4179 41.9972 65.5663 41.9044 66.253C41.793 67.1995 43.6489 67.4036 44.317 67.5335C46.8038 67.9789 48.8823 69.4079 48.5668 72.3215C48.1585 75.9219 44.6881 77.0539 41.5146 76.6827C39.566 76.46 37.7102 75.6806 36.1513 74.4929L38.3041 71.3194C39.2134 72.1174 40.7909 73.0082 41.9972 73.1567C42.6096 73.2309 43.5375 73.0453 43.6303 72.2844C43.7416 71.208 41.8673 71.0039 40.3455 70.5956C38.8237 70.1873 36.7637 68.7955 37.0235 66.3458C37.4133 62.9867 40.6239 61.8176 43.6117 62.1702C45.1521 62.3557 46.6738 62.7455 48.0286 63.562L46.0614 66.4571ZM56.751 76.3301H51.8702V66.5685L49.6988 66.5499V62.5228L51.8702 62.5413V58.4028H56.751V62.5413L58.9409 62.5228V66.5499L56.751 66.5685V76.3301ZM64.2485 69.4079C64.2485 71.2266 65.4548 72.637 67.5334 72.637C69.6119 72.637 70.8182 71.2266 70.8182 69.4079C70.8182 67.6449 69.6119 66.1602 67.5334 66.1602C65.4548 66.1602 64.2485 67.6449 64.2485 69.4079ZM75.365 76.293H70.6883V75.2538H70.6512C69.6676 76.3116 68.2757 76.757 66.7354 76.757C62.8381 76.757 60.0173 73.732 60.0173 69.3893C60.0173 65.0467 62.7639 62.0403 66.6982 62.0403C68.22 62.0403 69.7047 62.5599 70.7254 63.3764V62.4857H75.4021L75.365 76.293Z" fill="black"/>
<path d="M84.3286 76.8684C85.739 76.8684 86.8897 78.019 86.8897 79.4294C86.8897 80.8399 85.739 81.9905 84.3286 81.9905C82.9182 81.9905 81.7676 80.8399 81.7676 79.4294C81.7676 78.019 82.9182 76.8684 84.3286 76.8684Z" fill="black"/>
<path d="M111.851 51.2581C113.614 51.2581 115.061 52.687 115.061 54.4686C115.061 56.2502 113.632 57.6792 111.851 57.6792C110.088 57.6792 108.64 56.2502 108.64 54.4686C108.64 52.687 110.088 51.2581 111.851 51.2581Z" fill="black"/>
<path d="M104.168 37.1721C106.636 37.1721 108.64 39.195 108.64 41.6447C108.64 44.0944 106.618 46.1172 104.168 46.1172C101.7 46.1172 99.6953 44.0944 99.6953 41.6447C99.6953 39.195 101.7 37.1721 104.168 37.1721Z" fill="black"/>
<path d="M86.8896 64.0447C86.8896 71.1154 92.6242 76.8685 99.7134 76.8685V51.2581C92.6427 51.2581 86.8896 56.974 86.8896 64.0447Z" fill="black"/>
<path d="M108.659 73.0083C108.659 68.0533 104.65 64.0447 99.6953 64.0447V81.972C104.65 81.972 108.659 77.9634 108.659 73.0083Z" fill="black"/>
</g>
</svg>
