<svg width="121" height="121" viewBox="0 0 121 121" fill="none" xmlns="http://www.w3.org/2000/svg">
<g style="mix-blend-mode:multiply">
<path d="M108.254 55.5567H73.6069V46.542H108.254V55.5567Z" fill="#DCDCDC"/>
</g>
<g style="mix-blend-mode:multiply">
<path d="M103.754 55.5568H73.6069V33.01H103.754V55.5568Z" fill="#DCDCDC"/>
</g>
<g style="mix-blend-mode:multiply">
<path d="M91.2989 55.5567H73.6069V24H91.2989V55.5567Z" fill="#DCDCDC"/>
</g>
<g style="mix-blend-mode:multiply">
<path d="M94.7795 55.5568H73.6069V27.5212H94.7795V55.5568Z" fill="#DCDCDC"/>
</g>
<g style="mix-blend-mode:multiply">
<path d="M73.6021 27.5266V55.5539H91.2969V27.5266H73.6021Z" fill="#DCDCDC"/>
</g>
<g style="mix-blend-mode:multiply">
<path d="M55.8657 55.5566H73.6066V60.0645H55.8657V55.5566Z" fill="#DCDCDC"/>
</g>
<g style="mix-blend-mode:multiply">
<path d="M73.6021 33.0051V55.5539H94.7896V33.0051H73.6021Z" fill="#DCDCDC"/>
</g>
<g style="mix-blend-mode:multiply">
<path d="M73.6021 33.0051V55.5539H91.2969V33.0051H73.6021Z" fill="#DCDCDC"/>
</g>
<g style="mix-blend-mode:multiply">
<path d="M84.6706 55.5568H73.6069V42.0239H84.6706V55.5568Z" fill="#DCDCDC"/>
</g>
<g style="mix-blend-mode:multiply">
<path d="M73.6021 46.5483V55.5538H103.764V46.5483H73.6021Z" fill="#DCDCDC"/>
</g>
<g style="mix-blend-mode:multiply">
<path d="M73.6021 46.5483V55.5538H94.7896V46.5483H73.6021Z" fill="#DCDCDC"/>
</g>
<g style="mix-blend-mode:multiply">
<path d="M73.6021 46.5483V55.5538H91.2969V46.5483H73.6021Z" fill="#DCDCDC"/>
</g>
<g style="mix-blend-mode:multiply">
<path d="M73.6021 46.5483V55.5538H84.6815V46.5483H73.6021Z" fill="#DCDCDC"/>
</g>
<path d="M77.4642 72.5351C74.4457 73.0807 72.8358 75.3991 72.8358 79.4222C72.8358 83.5136 74.9823 86.2411 78.1351 86.2411C79.6779 86.2411 81.0195 85.6956 83.8368 84.2636V87.605C80.4157 89.2414 78.4033 89.6506 75.7202 89.6506C72.7016 89.6506 70.5549 88.9005 68.8779 87.0594C67.1338 85.2864 66.1947 82.968 66.1947 80.3086C66.1947 74.5126 70.4878 70.4895 76.7263 70.4895C80.8182 70.4895 83.7027 72.467 83.7027 75.2627C83.7027 77.1038 82.3609 78.3995 80.4157 78.3995C79.4095 78.3995 78.6044 78.0585 77.4641 77.4447L77.4642 72.5351ZM62.3712 80.3087C65.1215 76.8311 66.1277 75.399 66.1277 73.6943C66.1277 71.9895 64.7861 70.4893 62.9078 70.4893C61.8345 70.4893 60.8284 71.1031 60.3588 71.6486V78.8084L55.8644 84.9454V71.035H51.5713L44.4606 82.9681V71.035H42.0457L35.5388 72.5352V74.2399L39.0941 74.5808V89.3779H43.5885L50.4307 77.9221V89.3779H55.4617L62.3712 80.3087ZM21.9217 87.0594H22.9279C26.5501 87.0594 28.5625 84.8091 28.5625 80.3086C28.5625 76.5583 26.9527 74.5126 23.9339 74.5126C23.5315 74.5126 22.9278 74.5807 21.9216 74.7853V87.0593H21.9217V87.0594ZM21.9217 95.1057L24.8731 95.7876V97.4922H13.2683V95.7876L15.9515 95.1057V74.5125H13V72.8078L20.0434 70.6258H21.9218V73.0807C25.2086 71.035 26.349 70.694 28.093 70.694C31.9838 70.694 34.9352 74.3762 34.9352 79.4905C34.9352 85.3548 30.9775 89.3779 24.9402 89.3779C24.2694 89.3779 23.129 89.3097 21.9217 89.2416" fill="black"/>
</svg>
