<svg width="29" height="19" viewBox="0 0 29 19" fill="none" xmlns="http://www.w3.org/2000/svg">
<path d="M27.5804 2.28571C27.5804 2.53571 27.4196 2.85714 27.0982 3.25C26.7768 3.64286 26.4196 4.01786 26.0268 4.375C25.6518 4.71429 25.3036 5.10714 24.9821 5.55357C24.6607 6 24.5 6.40179 24.5 6.75893C24.5 6.95536 24.7321 7.15179 25.1964 7.34821C25.6607 7.54464 26.1607 7.76786 26.6964 8.01786C27.25 8.25 27.7589 8.73214 28.2232 9.46429C28.6875 10.1786 28.9196 11.0804 28.9196 12.1696C28.9196 13.9911 28.3125 15.4643 27.0982 16.5893C25.8839 17.7143 24.2946 18.2768 22.3304 18.2768C20.4732 18.2768 18.8929 17.6607 17.5893 16.4286C16.3036 15.1964 15.6607 13.6875 15.6607 11.9018C15.6607 10.8304 15.9375 9.65179 16.4911 8.36607C17.0446 7.0625 17.7589 5.85714 18.6339 4.75C19.5268 3.625 20.5804 2.6875 21.7946 1.9375C23.0089 1.1875 24.2054 0.8125 25.3839 0.8125C26.0446 0.8125 26.5714 0.964285 26.9643 1.26786C27.375 1.57143 27.5804 1.91071 27.5804 2.28571ZM12.875 2.28571C12.875 2.60714 12.6161 3.03571 12.0982 3.57143C11.5804 4.08929 11.0625 4.64286 10.5446 5.23214C10.0446 5.80357 9.79464 6.3125 9.79464 6.75893C9.79464 6.95536 10.0268 7.15179 10.4911 7.34821C10.9554 7.54464 11.4554 7.76786 11.9911 8.01786C12.5446 8.25 13.0536 8.73214 13.5179 9.46429C13.9821 10.1786 14.2143 11.0804 14.2143 12.1696C14.2143 13.9911 13.6071 15.4643 12.3929 16.5893C11.1786 17.7143 9.58929 18.2768 7.625 18.2768C5.76786 18.2768 4.1875 17.6607 2.88393 16.4286C1.59821 15.1964 0.955357 13.6875 0.955357 11.9018C0.955357 10.8304 1.23214 9.65179 1.78571 8.36607C2.33929 7.0625 3.05357 5.85714 3.92857 4.75C4.82143 3.625 5.875 2.6875 7.08929 1.9375C8.30357 1.1875 9.5 0.8125 10.6786 0.8125C11.3393 0.8125 11.8661 0.964285 12.2589 1.26786C12.6696 1.57143 12.875 1.91071 12.875 2.28571Z" fill="#FF2C9E"/>
</svg>
