<svg width="20" height="20" viewBox="0 0 20 20" fill="none" xmlns="http://www.w3.org/2000/svg">
<path d="M14.0982 9.50785L19.4319 14.687L14.9338 19.0957L14.0486 18.8955C7.25802 17.3596 2.0916 11.8363 1.01199 4.95841L0.932129 4.44964L4.87375 0.586426L10.1858 5.99926L8.11701 8.23007C8.84707 9.87348 10.1747 11.1802 11.8303 11.8838L14.0982 9.50785ZM4.84627 3.4138L3.07519 5.14965C4.18256 10.9246 8.57419 15.5329 14.313 16.9036L16.5679 14.6937L14.1521 12.348L12.3832 14.2012L11.7206 13.9794C9.04724 13.0848 6.93907 11.0024 6.01171 8.34028L5.81385 7.77232L7.42195 6.03832L4.84627 3.4138Z" fill="#000000"/>
</svg>
