<svg width="121" height="49" viewBox="0 0 121 49" fill="none" xmlns="http://www.w3.org/2000/svg">
<g opacity="0.8">
<path d="M120.495 26.9277H109.633V31.5114H120.495V26.9277Z" fill="black"/>
<path d="M6.98062 40.129H4.82777V48.2237H0.717773V27.1581H9.03562C13.1456 27.1581 15.7877 29.9864 15.7877 33.6924C15.7877 36.6182 14.0263 38.8613 11.2863 39.6414L15.7877 48.3213H11.1885L6.98062 40.129ZM8.15491 36.6182C10.2099 36.6182 11.482 35.4478 11.482 33.6924C11.482 31.9369 10.2099 30.7666 8.15491 30.7666H4.82777V36.6182H8.15491Z" fill="#0E1723"/>
<path d="M20.9747 26.3784C22.3448 26.3784 23.4212 27.4511 23.4212 28.8165C23.4212 30.0844 22.3448 31.2547 20.9747 31.2547C19.6048 31.2547 18.5283 30.1819 18.5283 28.8165C18.5283 27.4511 19.7026 26.3784 20.9747 26.3784ZM19.0176 48.3218V33.6928H23.0297V48.3218H19.0176Z" fill="#0E1723"/>
<path d="M41.3285 45.6875C41.3285 46.6628 41.4264 47.7355 41.4264 48.3207H37.61C37.5122 48.0282 37.4142 47.3455 37.4142 46.6628C36.7293 47.8331 35.2614 48.7108 33.3042 48.7108C29.0964 48.7108 26.1607 45.3949 26.1607 41.0063C26.1607 36.7151 29.0964 33.3017 33.2064 33.3017C35.7506 33.3017 36.9249 34.3745 37.3164 35.1547V26.7674H41.2307V45.6875H41.3285ZM33.7935 45.1024C35.8485 45.1024 37.4142 43.542 37.4142 40.9088C37.4142 38.2755 35.8485 36.8126 33.7935 36.8126C31.7385 36.8126 30.1728 38.2755 30.1728 40.9088C30.1728 43.542 31.7385 45.1024 33.7935 45.1024Z" fill="#0E1723"/>
<path d="M58.7471 44.1282C57.9643 46.6638 55.7135 48.8094 52.0928 48.8094C48.0806 48.8094 44.46 45.8837 44.46 41.0074C44.46 36.3261 47.885 33.3028 51.7013 33.3028C56.2027 33.3028 58.9428 36.2285 58.9428 40.9098C58.9428 41.495 58.8449 42.0802 58.8449 42.1777H48.3742C48.472 44.1282 50.1356 45.4935 52.0928 45.4935C53.9521 45.4935 54.9306 44.6158 55.42 43.2505L58.7471 44.1282ZM55.0286 39.3494C54.9306 37.8865 54.0499 36.4236 51.7013 36.4236C49.6463 36.4236 48.472 37.984 48.3742 39.3494H55.0286Z" fill="#0E1723"/>
<path d="M64.2264 43.4468C64.3242 44.6171 65.2049 45.6899 66.8684 45.6899C68.1407 45.6899 68.8256 45.0072 68.8256 44.2271C68.8256 43.5444 68.3364 43.0567 67.2599 42.7641L65.3028 42.2765C62.465 41.6913 61.1927 39.9359 61.1927 37.8878C61.1927 35.2546 63.5413 33.109 66.6728 33.109C70.8806 33.109 72.2507 35.7422 72.4463 37.3027L69.217 38.1804C69.1192 37.3027 68.4342 36.2299 66.7706 36.2299C65.6941 36.2299 64.9114 36.815 64.9114 37.6928C64.9114 38.3754 65.4007 38.8631 66.2814 38.9606L68.3364 39.4482C71.272 40.0333 72.7399 41.7889 72.7399 43.9344C72.7399 46.2751 70.8806 48.7132 67.0642 48.7132C62.6606 48.7132 61.0949 45.8849 60.8993 44.2271L64.2264 43.4468Z" fill="#0E1723"/>
<path d="M79.8836 48.3207H75.8715V26.7674H79.8836V34.8621C80.8621 33.6918 82.4279 33.3017 83.8956 33.3017C87.6143 33.3017 89.3757 35.9349 89.3757 39.1533V48.4183H85.3635V39.836C85.3635 38.178 84.5807 36.9101 82.6235 36.9101C80.96 36.9101 79.9814 38.178 79.8836 39.7384V48.3207Z" fill="#0E1723"/>
<path d="M102.783 46.7619C102 48.1274 100.239 48.7125 98.673 48.7125C95.1502 48.7125 93.0952 46.0793 93.0952 42.9584V33.6935H97.1072V42.1783C97.1072 43.8362 97.9881 45.104 99.7494 45.104C101.511 45.104 102.489 43.9338 102.489 42.1783V33.6935H106.502V45.6891C106.502 46.8595 106.599 47.8347 106.697 48.3223H102.881C102.783 48.0298 102.783 47.3471 102.783 46.7619Z" fill="#0E1723"/>
<path d="M119.712 37.5942C119.222 37.4967 118.831 37.4967 118.538 37.4967C116.482 37.4967 114.721 38.4719 114.721 41.5928V48.322H110.709V33.6932H114.525V35.8387C115.406 33.8882 117.461 33.4981 118.733 33.4981C119.027 33.4981 119.32 33.4981 119.614 33.5956V37.5942H119.712Z" fill="#0E1723"/>
</g>
</svg>
